<svg width="13" height="17" viewBox="0 0 13 17" fill="none" xmlns="http://www.w3.org/2000/svg">
<path fill-rule="evenodd" clip-rule="evenodd" d="M2.90786 3.57143C2.90786 2.62422 3.27558 1.71582 3.93013 1.04605C4.58467 0.376274 5.47243 0 6.3981 0C7.32378 0 8.21153 0.376274 8.86608 1.04605C9.52063 1.71582 9.88835 2.62422 9.88835 3.57143C9.88835 4.51863 9.52063 5.42703 8.86608 6.0968C8.21153 6.76658 7.32378 7.14285 6.3981 7.14285C5.47243 7.14285 4.58467 6.76658 3.93013 6.0968C3.27558 5.42703 2.90786 4.51863 2.90786 3.57143ZM9.26105e-05 14.7659C0.0262464 13.0472 0.711825 11.408 1.90884 10.202C3.10585 8.99611 4.7183 8.32019 6.3981 8.32019C8.07791 8.32019 9.69035 8.99611 10.8874 10.202C12.0844 11.408 12.77 13.0472 12.7961 14.7659C12.7981 14.8816 12.7671 14.9954 12.7069 15.0933C12.6468 15.1913 12.56 15.2692 12.4572 15.3174C10.5563 16.2093 8.48927 16.6695 6.3981 16.6667C4.23725 16.6667 2.18421 16.1841 0.339035 15.3174C0.236255 15.2692 0.149456 15.1913 0.0892584 15.0933C0.0290608 14.9954 -0.00192494 14.8816 9.26105e-05 14.7659Z" fill="black"/>
</svg>
